<svg xmlns="http://www.w3.org/2000/svg" viewBox="0 0 112 144" role="img" aria-labelledby="title desc">
    <title id="title">Jules Batch</title>
    <desc id="desc">A 3/4-view game sprite of Jules Batch, a manufacturing engineer with purple safety gear and a pilot-batch wrench.</desc>
    <defs>
        <linearGradient id="skin" x1="35" y1="27" x2="73" y2="72" gradientUnits="userSpaceOnUse"><stop offset="0" stop-color="#d59a76"/><stop offset="0.62" stop-color="#ab694c"/><stop offset="1" stop-color="#764330"/></linearGradient>
        <linearGradient id="hair" x1="24" y1="14" x2="80" y2="76" gradientUnits="userSpaceOnUse"><stop offset="0" stop-color="#2f2a25"/><stop offset="0.55" stop-color="#171514"/><stop offset="1" stop-color="#060606"/></linearGradient>
        <linearGradient id="coat" x1="29" y1="68" x2="84" y2="123" gradientUnits="userSpaceOnUse"><stop offset="0" stop-color="#f1ecf8"/><stop offset="0.54" stop-color="#ded5ea"/><stop offset="1" stop-color="#bfb1d0"/></linearGradient>
        <linearGradient id="accent" x1="33" y1="49" x2="92" y2="113" gradientUnits="userSpaceOnUse"><stop offset="0" stop-color="#d8bdff"/><stop offset="0.5" stop-color="#b890ff"/><stop offset="1" stop-color="#6043a7"/></linearGradient>
        <filter id="sprite-shadow" x="-25%" y="-16%" width="150%" height="135%"><feDropShadow dx="0" dy="6" stdDeviation="3.8" flood-color="#000" flood-opacity="0.45"/></filter>
    </defs>
    <ellipse cx="56" cy="132" rx="31" ry="8" fill="#000" opacity="0.34"/>
    <g filter="url(#sprite-shadow)" stroke="#11161b" stroke-linecap="round" stroke-linejoin="round">
        <path d="M28 76c-7 10-9 25-6 41 1 5 5 8 10 7s8-5 7-10c-2-10-1-21 5-30z" fill="#d9d0e6" stroke-width="4"/>
        <path d="M74 76c12 7 20 20 23 39 1 5-2 9-7 10s-9-2-10-7c-2-12-7-21-16-27z" fill="#d9d0e6" stroke-width="4"/>
        <path d="M32 68c7-8 16-12 28-12 13 0 24 5 31 14l-6 51c-6 8-15 12-28 12-12 0-22-4-29-12z" fill="url(#coat)" stroke-width="4"/>
        <path d="M39 72h41c4 9 6 19 5 32H34c0-13 2-24 5-32z" fill="url(#accent)" stroke-width="3"/>
        <path d="M45 76l9 50M75 76l-7 50" stroke="#f7f0ff" stroke-width="4" opacity="0.78"/>
        <path d="M57 62l4 70" fill="none" stroke-width="4" opacity="0.88"/>
        <path d="M39 118h14v15c0 5-4 8-10 8s-9-3-9-8z" fill="#29263a" stroke-width="4"/>
        <path d="M61 117h15v15c0 6-4 9-10 9s-10-3-10-9z" fill="#29263a" stroke-width="4"/>
        <path d="M31 135c7-5 17-5 24-1v6H27c0-2 1-4 4-5z" fill="#0c0f13" stroke-width="3"/>
        <path d="M56 134c8-4 18-4 25 1 3 1 4 3 4 5H56z" fill="#0c0f13" stroke-width="3"/>
        <path d="M86 91l13 13-7 7-5-5-15 15-6-6 15-15-5-5z" fill="#c6cad0" stroke-width="3"/>
        <path d="M25 39c2-18 16-30 34-30 23 0 39 16 38 39-1 22-16 37-37 37-20 0-35-17-35-46z" fill="url(#hair)" stroke-width="4"/>
        <path d="M29 47c0-21 13-35 32-35 20 0 34 15 34 36 0 23-14 38-34 38S29 70 29 47z" fill="url(#skin)" stroke-width="4"/>
        <path d="M31 29c4-13 15-21 31-21 19 0 31 11 34 29-22 0-42-4-60-11z" fill="#b890ff" stroke-width="4"/>
        <path d="M35 24h47" stroke="#f5edff" stroke-width="4" opacity="0.7"/>
        <path d="M28 42c4-19 18-29 38-27 15 1 25 9 30 23-19 1-35-2-49-10-4 8-10 12-19 14z" fill="url(#hair)" stroke-width="4"/>
        <path d="M38 50h17c5 0 8 3 8 8v5c0 5-3 8-8 8H39c-5 0-8-3-8-8v-5c0-5 3-8 7-8z" fill="#12191f" stroke="url(#accent)" stroke-width="4"/>
        <path d="M66 50h15c5 0 8 3 8 8v5c0 5-3 8-8 8H66c-5 0-8-3-8-8v-5c0-5 3-8 8-8z" fill="#12191f" stroke="url(#accent)" stroke-width="4"/>
        <path d="M59 60h4" stroke="#b890ff" stroke-width="4"/>
        <path d="M39 55h11M68 55h9" stroke="#eadcff" stroke-width="3" opacity="0.84"/>
        <path d="M51 77c7 4 15 4 22-1" fill="none" stroke="#50291d" stroke-width="3"/>
    </g>
</svg>
