<svg xmlns="http://www.w3.org/2000/svg" viewBox="0 0 112 144" role="img" aria-labelledby="title desc">
    <title id="title">Pipette</title>
    <desc id="desc">A small lime-accented lab assistant robot with a glass sample pod and utility arms.</desc>
    <defs>
        <linearGradient id="shell" x1="32" y1="34" x2="84" y2="116" gradientUnits="userSpaceOnUse"><stop offset="0" stop-color="#f4f6ed"/><stop offset="0.52" stop-color="#cfd7ca"/><stop offset="1" stop-color="#7d8884"/></linearGradient>
        <linearGradient id="lime" x1="31" y1="48" x2="88" y2="121" gradientUnits="userSpaceOnUse"><stop offset="0" stop-color="#f1ff9a"/><stop offset="0.52" stop-color="#d7ed69"/><stop offset="1" stop-color="#718a20"/></linearGradient>
        <filter id="sprite-shadow" x="-25%" y="-16%" width="150%" height="135%"><feDropShadow dx="0" dy="6" stdDeviation="3.8" flood-color="#000" flood-opacity="0.45"/></filter>
    </defs>
    <ellipse cx="56" cy="132" rx="28" ry="8" fill="#000" opacity="0.34"/>
    <g filter="url(#sprite-shadow)" stroke="#11161b" stroke-linecap="round" stroke-linejoin="round">
        <path d="M43 19h26l5 12-6 13H44l-6-13z" fill="url(#shell)" stroke-width="4"/>
        <path d="M44 31h25" stroke="url(#lime)" stroke-width="5"/>
        <circle cx="49" cy="25" r="3" fill="#10161b" stroke="none"/>
        <circle cx="63" cy="25" r="3" fill="#10161b" stroke="none"/>
        <path d="M51 36h12" stroke="#10161b" stroke-width="3"/>
        <path d="M35 48c4-8 11-12 21-12 11 0 19 4 23 12l8 65c-5 10-15 15-30 15-14 0-25-5-31-15z" fill="url(#shell)" stroke-width="4"/>
        <path d="M43 54h28v22H43z" fill="#11191d" stroke-width="3"/>
        <path d="M48 61h18" stroke="url(#lime)" stroke-width="5"/>
        <path d="M38 82h36l5 23c-5 5-12 8-22 8-9 0-17-3-24-8z" fill="url(#lime)" stroke-width="3"/>
        <path d="M25 62c-8 6-12 16-12 29 0 5 4 8 8 8s8-3 8-8c0-8 3-14 8-18z" fill="#cfd7ca" stroke-width="4"/>
        <path d="M85 62c9 5 14 15 16 28 1 5-2 9-7 10s-9-2-10-7c-1-8-4-14-10-18z" fill="#cfd7ca" stroke-width="4"/>
        <path d="M16 93h12v12H16z" fill="#10161b" stroke-width="3"/>
        <path d="M86 95h12v22H86z" fill="#10161b" stroke-width="3"/>
        <path d="M89 99h6v13h-6z" fill="url(#lime)" stroke="none"/>
        <path d="M39 123h13v11H39z" fill="#202832" stroke-width="4"/>
        <path d="M62 123h13v11H62z" fill="#202832" stroke-width="4"/>
        <path d="M34 133h20v6H34z" fill="#0c0f13" stroke-width="3"/>
        <path d="M60 133h20v6H60z" fill="#0c0f13" stroke-width="3"/>
        <path d="M31 51c-3 12-3 33 1 55" fill="none" stroke="#fffdf2" stroke-width="4" opacity="0.7"/>
    </g>
</svg>
